:SAMPLES-PER-SECOND 30
:FULLY-SPECIFIED
:DEGREES
328
root  -72.2805 41.5755 0.932599 97.5228 88.3467 95.7052
RightUpLeg  1.41701 -8.55441 -4.94108
RightLeg  6.14708 -6.25166 3.62932
RightFoot  -6.7375 0.0183964 -1.59351
RightToes  0.000482159 0.542163 -0.142577
Spine  6.58477 -0.381992 2.61304
Spine1  4.2805 -0.510519 1.33544
HEad  -13.6505 4.18903 -0.197385
LeftShoulder1  5.53367 -9.70514 -35.8
LeftArm  -15.4266 17.551 -20.5147
LeftForeArm  31.7619 -13.4734 -2.97247
LeftHand  -0.25398 0.0180481 5.50724
RightShoulder  3.72426 6.84356 30.025
RightArm  -25.1284 -16.345 30.2062
RightForeArm  2.81544 10.708 2.96933
RightHand  -2.18217 7.6842 -19.623
LeftUpLeg  1.20628 4.2064 2.14907
LeftLeg  2.48837 9.86559 -3.41368
LeftFoot  -4.09748 0.0569746 -0.519339
LeftToes  1.06246e-005 4.65855e-005 -8.18503e-006
329
root  -72.2918 41.5976 0.768056 71.8526 88.3802 70.421
RightUpLeg  1.87593 -8.37499 -5.05409
RightLeg  5.79062 -5.62906 3.4555
RightFoot  -6.41632 0.0131629 -1.31829
RightToes  0.000482159 0.542163 -0.142577
Spine  6.1527 -0.0859637 3.1678
Spine1  4.59493 -0.0258588 0.557931
HEad  -13.6362 3.87496 -0.405825
LeftShoulder1  4.81813 -8.94611 -32.6451
LeftArm  -16.317 17.3329 -17.9783
LeftForeArm  29.5093 -11.2457 -2.65024
LeftHand  -0.25398 0.0180481 5.50724
RightShoulder  3.24601 6.14575 27.6117
RightArm  -26.2974 -15.2478 25.9083
RightForeArm  -0.793807 10.0784 2.67918
RightHand  -2.26547 7.60763 -20.4533
LeftUpLeg  1.99562 4.47154 2.16383
LeftLeg  1.86116 10.3381 -3.7875
LeftFoot  -3.75686 0.0406142 -0.277885
LeftToes  1.06246e-005 4.65855e-005 -8.18503e-006
330
root  -72.2866 41.6164 0.619689 64.4498 88.3318 62.7089
RightUpLeg  1.6184 -8.27486 -5.12865
RightLeg  5.50197 -5.46516 3.3537
RightFoot  -6.08397 0.00114017 -0.923088
RightToes  0.000482159 0.542163 -0.142577
Spine  5.17038 0.0860972 3.34132
Spine1  4.35854 0.192621 0.269999
HEad  -12.5494 3.6131 -0.492553
LeftShoulder1  4.1209 -8.13057 -29.3342
LeftArm  -16.8165 17.4602 -15.1013
LeftForeArm  27.2132 -9.88154 -2.24746
LeftHand  -0.25398 0.0180481 5.50724
RightShoulder  2.70836 5.25717 24.7747
RightArm  -27.278 -14.5036 21.5164
RightForeArm  -3.70131 10.1148 2.5006
RightHand  -2.30539 7.37062 -21.1614
LeftUpLeg  2.02768 4.37901 1.97495
LeftLeg  1.17015 10.5621 -3.98319
LeftFoot  -3.44573 0.0327094 -0.172036
LeftToes  1.06246e-005 4.65855e-005 -8.18503e-006
331
root  -72.2822 41.6347 0.499784 65.5345 88.3736 63.3976
RightUpLeg  1.26724 -8.24338 -5.19937
RightLeg  5.28603 -5.53757 3.32315
RightFoot  -5.78686 -0.00547589 -0.695058
RightToes  0.000482159 0.542163 -0.142577
Spine  4.52023 0.216485 3.2279
Spine1  3.41527 0.315004 0.19742
HEad  -10.8826 3.15766 -0.296062
LeftShoulder1  3.46017 -7.31352 -25.7962
LeftArm  -16.907 17.6584 -12.0721
LeftForeArm  24.7343 -9.3908 -2.01557
LeftHand  -0.25398 0.0180481 5.50724
RightShoulder  2.16216 4.19513 21.7843
RightArm  -27.6161 -13.8558 17.1278
RightForeArm  -5.51784 10.5943 2.52247
RightHand  -2.36623 7.37558 -21.6884
LeftUpLeg  1.7773 4.09718 1.67054
LeftLeg  0.745828 10.9019 -3.91947
LeftFoot  -3.28433 0.0183109 0.0239058
LeftToes  1.06246e-005 4.65855e-005 -8.18503e-006
332
root  -72.281 41.6457 0.417447 68.4692 88.4232 66.4131
RightUpLeg  1.35804 -8.25917 -5.30667
RightLeg  5.26925 -5.60376 3.2775
RightFoot  -5.6223 -0.00408165 -0.679926
RightToes  0.000482159 0.542163 -0.142577
Spine  4.46242 0.272633 2.91522
Spine1  2.48815 0.367668 0.17718
HEad  -9.54573 2.77424 0.0830685
LeftShoulder1  2.83789 -6.47589 -22.0604
LeftArm  -17.179 17.7121 -9.1925
LeftForeArm  22.3927 -9.70758 -1.84901
LeftHand  -0.25398 0.0180481 5.50724
RightShoulder  1.67895 3.14274 18.7654
RightArm  -27.448 -12.8211 13.1043
RightForeArm  -6.58569 11.0543 2.67511
RightHand  -2.41664 7.60644 -21.7588
LeftUpLeg  1.83432 3.94001 1.47968
LeftLeg  0.72402 11.1238 -3.811
LeftFoot  -3.20845 0.00710253 0.180926
LeftToes  1.06246e-005 4.65855e-005 -8.18503e-006
333
root  -72.2738 41.6437 0.357832 69.7167 88.4984 68.0577
RightUpLeg  1.77528 -8.26449 -5.38522
RightLeg  5.32836 -5.59955 3.22245
RightFoot  -5.57405 -0.00144094 -0.719083
RightToes  0.000482159 0.542163 -0.142577
Spine  4.32418 0.228493 2.60711
Spine1  2.3745 0.320933 0.148434
HEad  -8.91377 2.82126 0.394803
LeftShoulder1  2.26095 -5.52724 -18.4156
LeftArm  -18.6324 17.5385 -6.79534
LeftForeArm  20.7616 -10.6185 -1.39147
LeftHand  -0.25398 0.0180481 5.50724
RightShoulder  1.31016 2.3308 15.7241
RightArm  -27.2569 -11.3814 9.74748
RightForeArm  -7.19754 11.438 2.85758
RightHand  -2.43663 7.88514 -21.4941
LeftUpLeg  2.20802 3.97491 1.48343
LeftLeg  0.861366 10.9977 -3.77418
LeftFoot  -3.24063 0.0082739 0.14889
LeftToes  1.06246e-005 4.65855e-005 -8.18503e-006
334
root  -72.2641 41.6401 0.300634 67.5629 88.5729 66.1346
RightUpLeg  2.05757 -8.25144 -5.41829
RightLeg  5.27913 -5.53383 3.21613
RightFoot  -5.52368 -0.00161355 -0.705249
RightToes  0.000482159 0.542163 -0.142577
Spine  3.77227 0.203076 2.26574
Spine1  2.74043 0.242728 0.295243
HEad  -8.53069 3.09221 0.309363
LeftShoulder1  1.77149 -4.48737 -15.3044
LeftArm  -21.9911 17.2384 -5.05176
LeftForeArm  19.7454 -12.1407 -0.5919
LeftHand  -0.25398 0.0180481 5.50724
RightShoulder  1.01604 1.61546 12.841
RightArm  -27.5298 -9.82945 7.01927
RightForeArm  -7.37444 12.2173 3.04451
RightHand  -2.45425 8.08596 -21.3365
LeftUpLeg  2.4861 4.00762 1.4995
LeftLeg  0.870967 10.8919 -3.74365
LeftFoot  -3.31311 0.00894007 0.127235
LeftToes  1.06246e-005 4.65855e-005 -8.18503e-006
335
root  -72.2683 41.6484 0.247468 64.8428 88.5609 63.3867
RightUpLeg  2.04575 -8.29254 -5.50588
RightLeg  5.20261 -5.42287 3.25624
RightFoot  -5.42885 -0.0062238 -0.596637
RightToes  0.000482159 0.542163 -0.142577
Spine  3.30706 0.296001 1.68943
Spine1  2.63612 0.22017 0.770069
HEad  -7.85732 3.18171 -0.179626
LeftShoulder1  1.4312 -3.62386 -13.0144
LeftArm  -27.4418 17.039 -3.7647
LeftForeArm  19.2349 -14.5454 -0.0948034
LeftHand  -0.25398 0.0180481 5.50724
RightShoulder  0.730855 0.627046 10.4439
RightArm  -28.6494 -8.3251 4.90537
RightForeArm  -7.48645 13.8728 3.30952
RightHand  -2.45815 7.9943 -21.5094
LeftUpLeg  2.5249 3.906 1.36083
LeftLeg  0.684662 11.1063 -3.69368
LeftFoot  -3.20119 -0.00235306 0.293162
LeftToes  1.06246e-005 4.65855e-005 -8.18503e-006
336
root  -72.2914 41.6623 0.211281 66.1378 88.5098 64.6911
RightUpLeg  2.0238 -8.39608 -5.66459
RightLeg  5.2123 -5.35433 3.29804
RightFoot  -5.36234 -0.0179546 -0.377111
RightToes  0.000482159 0.542163 -0.142577
Spine  3.30688 0.40132 1.05723
Spine1  1.9518 0.236218 1.22517
HEad  -6.83386 3.11025 -0.629451
LeftShoulder1  1.24796 -3.16662 -11.4927
LeftArm  -34.7124 17.0578 -2.57616
LeftForeArm  20.1478 -17.7505 -0.823737
LeftHand  -0.25398 0.0180481 5.50724
RightShoulder  0.493675 -0.435902 8.68548
RightArm  -30.4485 -7.1083 3.49193
RightForeArm  -8.40592 16.3494 3.80113
RightHand  -2.46959 7.7122 -22.0444
LeftUpLeg  2.56316 3.75771 1.16755
LeftLeg  0.467714 11.3418 -3.6607
LeftFoot  -2.92354 -0.0154877 0.488635
LeftToes  1.06246e-005 4.65855e-005 -8.18503e-006
337
root  -72.3199 41.6661 0.193627 70.0914 88.5462 68.8557
RightUpLeg  2.233 -8.44805 -5.75023
RightLeg  5.21894 -5.41652 3.31077
RightFoot  -5.37567 -0.0298327 -0.154534
RightToes  0.000482159 0.542163 -0.142577
Spine  3.45261 0.352042 0.80249
Spine1  1.444 0.20944 1.13833
HEad  -5.8055 3.17716 -0.607256
LeftShoulder1  1.14516 -2.95685 -10.3942
LeftArm  -41.8641 17.1398 -1.56755
LeftForeArm  22.4001 -21.2073 -2.64399
LeftHand  -0.25398 0.0180481 5.50724
RightShoulder  0.400597 -0.841016 7.52039
RightArm  -31.965 -6.49122 2.57741
RightForeArm  -10.2745 18.9911 4.48688
RightHand  -2.61177 7.9002 -22.9383
LeftUpLeg  2.71032 3.70296 1.11155
LeftLeg  0.496374 11.2954 -3.60674
LeftFoot  -2.81765 -0.0190477 0.535425
LeftToes  1.06246e-005 4.65855e-005 -8.18503e-006
